<?xml version="1.0" encoding="UTF-8"?>
<svg width="20px" height="17px" viewBox="0 0 20 17" version="1.1" xmlns="http://www.w3.org/2000/svg" xmlns:xlink="http://www.w3.org/1999/xlink">
    <!-- Generator: Sketch 42 (36781) - http://www.bohemiancoding.com/sketch -->
    <title>communication</title>
    <desc>Created with Sketch.</desc>
    <defs></defs>
    <g id="Icons_categories" stroke="none" stroke-width="1" fill="none" fill-rule="evenodd">
        <g id="communication" fill="#FFFFFF">
            <polygon id="Fill-194" points="2 4 0 4 0 12 2 12"></polygon>
            <path d="M7.5981,14.8696 L5.0001,14.2196 L5.0001,11.9136 L9.1271,12.8306 L7.5981,14.8696 Z M18.0001,0.0006 L18.0001,1.1996 L3.0001,4.5316 L3.0001,15.0006 C3.0001,15.4596 3.3121,15.8596 3.7571,15.9716 L7.7571,16.9716 C7.8381,16.9916 7.9191,17.0006 8.0001,17.0006 C8.3101,17.0006 8.6081,16.8566 8.8001,16.6006 L11.2701,13.3076 L18.0001,14.8026 L18.0001,16.0006 L20.0001,16.0006 L20.0001,0.0006 L18.0001,0.0006 Z" id="Fill-195"></path>
        </g>
    </g>
</svg>