<?xml version="1.0" encoding="UTF-8"?>
<svg width="48px" height="48px" viewBox="0 0 48 48" version="1.1" xmlns="http://www.w3.org/2000/svg" xmlns:xlink="http://www.w3.org/1999/xlink">
    <!-- Generator: Sketch 42 (36781) - http://www.bohemiancoding.com/sketch -->
    <title>Connections</title>
    <desc>Created with Sketch.</desc>
    <defs></defs>
    <g id="icon_navbar" stroke="none" stroke-width="1" fill="none" fill-rule="evenodd">
        <g id="Connections">
            <path d="M0,24 C0,37.2337237 10.7663022,48 23.9999422,48 C37.2335822,48 48,37.2337237 48,23.9998845 C48.0001155,10.7662763 37.2335822,0 23.9999422,0 C10.7664178,0 0,10.7662763 0,24 Z" id="Shape" fill="#456678"></path>
            <g id="connect" transform="translate(12.000000, 12.000000)" fill="#2B414D">
                <path d="M10.5296052,6.89185458 L13.5918859,6.89185458 C14.6474883,6.89185458 15.5066728,6.03267004 15.5066728,4.97706765 L15.5066728,1.91478693 C15.5066728,0.859184538 14.6474883,0 13.5918859,0 L10.5296052,0 C9.47400276,0 8.61481822,0.859184538 8.61481822,1.91478693 L8.61481822,4.97706765 C8.61481822,6.03267004 9.47400276,6.89185458 10.5296052,6.89185458" id="Fill-291"></path>
                <path d="M4.97706765,16.6553152 L1.91478693,16.6553152 C0.859184538,16.6553152 0,17.5144998 0,18.5701022 L0,21.6323829 C0,22.6879853 0.859184538,23.5471698 1.91478693,23.5471698 L4.97706765,23.5471698 C6.03267004,23.5471698 6.89185458,22.6879853 6.89185458,21.6323829 L6.89185458,18.5701022 C6.89185458,17.5144998 6.03267004,16.6553152 4.97706765,16.6553152" id="Fill-292"></path>
                <path d="M21.6323829,16.6553152 L18.5701022,16.6553152 C17.5144998,16.6553152 16.6553152,17.5144998 16.6553152,18.5701022 L16.6553152,21.6323829 C16.6553152,22.6879853 17.5144998,23.5471698 18.5701022,23.5471698 L21.6323829,23.5471698 C22.6879853,23.5471698 23.5471698,22.6879853 23.5471698,21.6323829 L23.5471698,18.5701022 C23.5471698,17.5144998 22.6879853,16.6553152 21.6323829,16.6553152" id="Fill-293"></path>
                <polygon id="Fill-294" points="10.9121031 8.50986612 8.76664338 7.46617579 5.16889093 14.4629825 7.31435064 15.5066728"></polygon>
                <polygon id="Fill-295" points="13.2093879 8.50986612 16.8071404 15.5066728 18.9526001 14.4629825 15.3548476 7.46617579"></polygon>
                <polygon id="Fill-296" points="9.76346065 21.249885 14.3580304 21.249885 14.3580304 18.9526001 9.76346065 18.9526001"></polygon>
            </g>
        </g>
    </g>
</svg>
