<?xml version="1.0" encoding="UTF-8"?>
<svg width="20px" height="20px" viewBox="0 0 20 20" version="1.1" xmlns="http://www.w3.org/2000/svg" xmlns:xlink="http://www.w3.org/1999/xlink">
    <!-- Generator: Sketch 42 (36781) - http://www.bohemiancoding.com/sketch -->
    <title>design</title>
    <desc>Created with Sketch.</desc>
    <defs></defs>
    <g id="Icons_categories" stroke="none" stroke-width="1" fill="none" fill-rule="evenodd">
        <g id="design" fill="#FFFFFF">
            <g id="Group-2">
                <path d="M18.3421905,0.8799 C17.226,-0.2931 15.418381,-0.2931 14.3021905,0.8799 L5.96504762,9.6329 C7.02409524,9.5589 8.10504762,9.9299 8.91457143,10.7789 C9.72314286,11.6289 10.0764762,12.7649 10.0050476,13.8769 L18.3421905,5.1219 C18.8774286,4.5589 19.1793333,3.7969 19.1793333,3.0009 C19.1793333,2.2039 18.8774286,1.4419 18.3421905,0.8799" id="Fill-266"></path>
                <path d="M2.60838095,12.1934 C-0.0420952381,14.9764 2.9712381,16.4054 -0.00019047619,19.5264 C-0.00019047619,19.5264 4.91695238,20.1834 7.56647619,17.4004 C8.93695238,15.9624 8.93695238,13.6314 7.56647619,12.1934 C6.19695238,10.7564 3.97695238,10.7564 2.60838095,12.1934" id="Fill-267"></path>
            </g>
        </g>
    </g>
</svg>