<?xml version="1.0" encoding="UTF-8"?>
<svg width="20px" height="20px" viewBox="0 0 20 20" version="1.1" xmlns="http://www.w3.org/2000/svg" xmlns:xlink="http://www.w3.org/1999/xlink">
    <!-- Generator: Sketch 42 (36781) - http://www.bohemiancoding.com/sketch -->
    <title>development</title>
    <desc>Created with Sketch.</desc>
    <defs></defs>
    <g id="Icons_categories" stroke="none" stroke-width="1" fill="none" fill-rule="evenodd">
        <g id="development" fill="#FFFFFF">
            <path d="M16,18.0005 C15.448,18.0005 15,17.5525 15,17.0005 C15,16.4485 15.448,16.0005 16,16.0005 C16.552,16.0005 17,16.4485 17,17.0005 C17,17.5525 16.552,18.0005 16,18.0005 M18,14.0005 L2,14.0005 C0.896,14.0005 0,14.8965 0,16.0005 L0,18.0005 C0,19.1045 0.896,20.0005 2,20.0005 L18,20.0005 C19.105,20.0005 20,19.1045 20,18.0005 L20,16.0005 C20,14.8965 19.105,14.0005 18,14.0005" id="Fill-122"></path>
            <polygon id="Fill-123" points="5.5 9.5 14.5 9.5 14.5 3.5 5.5 3.5"></polygon>
            <path d="M15.5,10.0005 C15.5,10.2765 15.276,10.5005 15,10.5005 L5,10.5005 C4.724,10.5005 4.5,10.2765 4.5,10.0005 L4.5,3.0005 C4.5,2.7245 4.724,2.5005 5,2.5005 L15,2.5005 C15.276,2.5005 15.5,2.7245 15.5,3.0005 L15.5,10.0005 Z M16,0.0005 L4,0.0005 C2.897,0.0005 2,0.8975 2,2.0005 L2,11.0005 C2,12.1035 2.897,13.0005 4,13.0005 L16,13.0005 C17.103,13.0005 18,12.1035 18,11.0005 L18,2.0005 C18,0.8975 17.103,0.0005 16,0.0005 L16,0.0005 Z" id="Fill-124"></path>
        </g>
    </g>
</svg>