<?xml version="1.0" encoding="UTF-8"?>
<svg width="215px" height="211px" viewBox="0 0 415 411" version="1.1" xmlns="http://www.w3.org/2000/svg" xmlns:xlink="http://www.w3.org/1999/xlink">
    <!-- Generator: Sketch 42 (36781) - http://www.bohemiancoding.com/sketch -->
    <title>Group@2x</title>
    <desc>Created with Sketch.</desc>
    <defs></defs>
    <g id="Page-1" stroke="none" stroke-width="1" fill="none" fill-rule="evenodd">
        <g id="Group">
            <g id="icon" transform="translate(59.000000, 115.000000)">
                <path d="M29.6010296,0 C13.3204633,0 0,13.2960547 0,29.5467882 L0,265.921094 C0,282.171827 13.3204633,295.467882 29.6010296,295.467882 L207.207207,295.467882 C223.487773,295.467882 236.808237,282.171827 236.808237,265.921094 L236.808237,88.6403646 L148.005148,0 L29.6010296,0 L29.6010296,0 Z" id="Combined-Shape" fill="#2B414D"></path>
                <g id="stopwatch" transform="translate(39.000000, 46.437247)">
                    <path id="Shape" fill="#000000"></path>
                    <path d="M78,30.1310324 C35.0385,30.1310324 0.08625,65.0357389 0.08625,107.94001 C0.08625,150.844281 35.038125,185.748988 78,185.748988 C120.961875,185.748988 155.914125,150.844281 155.914125,107.939636 C155.9145,65.0357389 120.961875,30.1310324 78,30.1310324 L78,30.1310324 Z" id="Shape" fill="#FFFFFF"></path>
                    <path d="M78.165375,185.746741 C121.051125,185.657237 155.91375,150.788856 155.91375,107.939636 C155.9145,65.091164 121.051875,30.2227834 78.165375,30.1332794 L78.165375,185.746741 Z" id="Shape" fill="#FFFFFF"></path>
                    <path d="M78,40.0296559 C40.503375,40.0296559 9.997875,70.4939879 9.997875,107.94001 C9.997875,145.386032 40.503375,175.850739 78,175.850739 C115.496625,175.850739 146.002125,145.386407 146.002125,107.940385 C146.002125,70.4943623 115.496625,40.0296559 78,40.0296559 L78,40.0296559 Z" id="Shape" fill="#FFFFFF"></path>
                    <path d="M139.996875,107.939636 C139.996875,73.8869028 112.093429,46.1694838 77.742,46.0301721 L77.742,169.849848 C112.093429,169.709787 139.996875,141.992743 139.996875,107.939636 L139.996875,107.939636 Z" id="Shape" fill="#2B414D"></path>
                    <path d="M16.003125,107.94001 C16.003125,142.079251 43.814625,169.852844 78,169.852844 C78.08625,169.852844 78.172125,169.849848 78.258,169.849848 L78.258,113.477923 L78.258,46.0301721 C78.172125,46.0297976 78.086625,46.0268016 78,46.0268016 C43.814625,46.0268016 16.003125,73.8007692 16.003125,107.94001 Z" id="Shape" fill="#2B414D"></path>
                    <path d="M84.60225,99.1487652 L84.60225,60.5893725 C84.60225,56.948168 81.646125,53.9960324 78,53.9960324 C74.353875,53.9960324 71.39775,56.948168 71.39775,60.5893725 L71.39775,99.1487652 C68.725125,101.153431 66.996375,104.345243 66.996375,107.94001 C66.996375,114.009059 71.923125,118.928785 78,118.928785 C84.076875,118.928785 89.003625,114.008684 89.003625,107.94001 C89.003625,104.344868 87.274875,101.153431 84.60225,99.1487652 L84.60225,99.1487652 Z" id="Shape" fill="#F4D35E"></path>
                    <path d="" id="Shape" fill="#CC7401"></path>
                    <path d="M117.037875,132.151791 C116.67,132.151791 116.2965,132.059666 115.95375,131.865304 L77.172,109.888877 C76.11525,109.289686 75.744,107.948249 76.344,106.892925 C76.944,105.837227 78.28725,105.466478 79.344,106.066043 L118.12575,128.04247 C119.1825,128.64166 119.55375,129.983097 118.95375,131.038421 C118.549125,131.751457 117.804375,132.151791 117.037875,132.151791 L117.037875,132.151791 Z" id="Shape" fill="#65AFFF"></path>
                    <ellipse id="Oval" fill="#00DDC2" cx="78.256875" cy="107.976711" rx="13.123125" ry="13.105415"></ellipse>
                </g>
            </g>
            <path d="M111.098692,15.1840779 C110.166922,15.1840779 109.411573,11.7850063 109.411573,7.59203895 C109.411573,3.39907162 110.166922,0 111.098692,0 C112.030463,0 112.785812,3.39907162 112.785812,7.59203895 C112.785812,11.7850063 112.030463,15.1840779 111.098692,15.1840779 Z M113.772352,16.4987796 C113.18597,15.7746579 115.352188,13.0485362 118.610735,10.4098163 C121.869283,7.77109648 124.986214,6.21900802 125.572597,6.94312972 C126.158979,7.66725141 123.992761,10.3933731 120.734213,13.032093 C117.475665,15.6708128 114.358734,17.2229013 113.772352,16.4987796 Z M114.392568,19.2907068 C114.602171,18.3828175 118.084041,18.4114526 122.169543,19.354665 C126.255045,20.2978774 129.397082,21.7984918 129.187479,22.7063811 C128.977876,23.6142704 125.496006,23.5856354 121.410504,22.642423 C117.325002,21.6992105 114.182965,20.1985961 114.392568,19.2907068 Z M112.528651,21.6149135 C113.366121,21.2064522 115.53508,23.9303943 117.373155,27.6990083 C119.211231,31.4676224 120.022383,34.8538111 119.184913,35.2622724 C118.347443,35.6707337 116.178485,32.9467917 114.340409,29.1781776 C112.502333,25.4095635 111.691182,22.0233749 112.528651,21.6149135 Z M109.668733,21.6149135 C110.506203,22.0233749 109.695052,25.4095635 107.856976,29.1781776 C106.0189,32.9467917 103.849941,35.6707337 103.012472,35.2622724 C102.175002,34.8538111 102.986153,31.4676224 104.824229,27.6990083 C106.662305,23.9303943 108.831263,21.2064522 109.668733,21.6149135 Z M107.804817,19.2907068 C108.01442,20.1985961 104.872383,21.6992105 100.786881,22.642423 C96.7013789,23.5856354 93.2195087,23.6142704 93.0099059,22.7063811 C92.8003031,21.7984918 95.9423402,20.2978774 100.027842,19.354665 C104.113344,18.4114526 107.595214,18.3828175 107.804817,19.2907068 Z M108.425033,16.4987796 C107.838651,17.2229013 104.721719,15.6708128 101.463172,13.032093 C98.2046241,10.3933731 96.038406,7.66725141 96.6247882,6.94312972 C97.2111704,6.21900802 100.328102,7.77109648 103.586649,10.4098163 C106.845197,13.0485362 109.011415,15.7746579 108.425033,16.4987796 Z" id="Oval-3" fill="#FF8500"></path>
            <path d="M200,49.5506395 C199.536655,49.5506395 199.16104,47.8603713 199.16104,45.7753197 C199.16104,43.6902682 199.536655,42 200,42 C200.463345,42 200.83896,43.6902682 200.83896,45.7753197 C200.83896,47.8603713 200.463345,49.5506395 200,49.5506395 Z M201.32954,50.2044058 C201.037948,49.8443192 202.11515,48.4886912 203.73554,47.1765257 C205.355929,45.8643603 206.905897,45.0925478 207.197489,45.4526344 C207.489081,45.8127209 206.411878,47.168349 204.791489,48.4805144 C203.1711,49.7926798 201.621132,50.5644923 201.32954,50.2044058 Z M201.637957,51.5927572 C201.742187,51.1412879 203.473629,51.1555273 205.50524,51.6245619 C207.536852,52.0935964 209.099304,52.8398122 208.995074,53.2912815 C208.890844,53.7427508 207.159402,53.7285113 205.127791,53.2594768 C203.096179,52.7904423 201.533727,52.0442265 201.637957,51.5927572 Z M200.711081,52.7485236 C201.127532,52.5454066 202.206098,53.8999508 203.120124,55.7739827 C204.034151,57.6480146 204.437515,59.3318764 204.021063,59.5349934 C203.604612,59.7381104 202.526046,58.3835662 201.61202,56.5095343 C200.697993,54.6355024 200.294629,52.9516406 200.711081,52.7485236 Z M199.288919,52.7485236 C199.705371,52.9516406 199.302007,54.6355024 198.38798,56.5095343 C197.473954,58.3835662 196.395388,59.7381104 195.978937,59.5349934 C195.562485,59.3318764 195.965849,57.6480146 196.879876,55.7739827 C197.793902,53.8999508 198.872468,52.5454066 199.288919,52.7485236 Z M198.362043,51.5927572 C198.466273,52.0442265 196.903821,52.7904423 194.872209,53.2594768 C192.840598,53.7285113 191.109156,53.7427508 191.004926,53.2912815 C190.900696,52.8398122 192.463148,52.0935964 194.49476,51.6245619 C196.526371,51.1555273 198.257813,51.1412879 198.362043,51.5927572 Z M198.67046,50.2044058 C198.378868,50.5644923 196.8289,49.7926798 195.208511,48.4805144 C193.588122,47.168349 192.510919,45.8127209 192.802511,45.4526344 C193.094103,45.0925478 194.644071,45.8643603 196.26446,47.1765257 C197.88485,48.4886912 198.962052,49.8443192 198.67046,50.2044058 Z" id="Oval-3" fill="#65AFFF"></path>
            <path d="M286.021554,98.510777 C286.021554,86.6307029 276.390851,77 264.510777,77 C252.630703,77 243,86.6307029 243,98.510777 C243,110.390851 252.630703,120.021554 264.510777,120.021554 C276.390851,120.021554 286.021554,110.390851 286.021554,98.510777 Z M249.145936,98.510777 C249.145936,90.0250098 256.02501,83.1459363 264.510777,83.1459363 C272.996544,83.1459363 279.875618,90.0250098 279.875618,98.510777 C279.875618,106.996544 272.996544,113.875618 264.510777,113.875618 C256.02501,113.875618 249.145936,106.996544 249.145936,98.510777 Z" id="Oval-4" fill="#00DDC2" fill-rule="nonzero"></path>
            <path d="M414.619677,107.809838 C414.619677,101.287445 409.332232,96 402.809838,96 C396.287445,96 391,101.287445 391,107.809838 C391,114.332232 396.287445,119.619677 402.809838,119.619677 C409.332232,119.619677 414.619677,114.332232 414.619677,107.809838 Z M394.37424,107.809838 C394.37424,103.150986 398.150986,99.3742395 402.809838,99.3742395 C407.468691,99.3742395 411.245437,103.150986 411.245437,107.809838 C411.245437,112.468691 407.468691,116.245437 402.809838,116.245437 C398.150986,116.245437 394.37424,112.468691 394.37424,107.809838 Z" id="Oval-4-Copy" fill="#65AFFF" fill-rule="nonzero"></path>
            <path d="M336.451954,162.451954 L328.613005,162.451954 C327.173509,162.451954 326,163.621829 326,165.064943 C326,166.50512 327.169882,167.677932 328.613005,167.677932 L336.451954,167.677932 L336.451954,175.516881 C336.451954,176.956377 337.621829,178.129886 339.064943,178.129886 C340.50512,178.129886 341.677932,176.960004 341.677932,175.516881 L341.677932,167.677932 L349.516881,167.677932 C350.956377,167.677932 352.129886,166.508057 352.129886,165.064943 C352.129886,163.624766 350.960004,162.451954 349.516881,162.451954 L341.677932,162.451954 L341.677932,154.613005 C341.677932,153.173509 340.508057,152 339.064943,152 C337.624766,152 336.451954,153.169882 336.451954,154.613005 L336.451954,162.451954 Z" id="Combined-Shape" fill="#FF8500"></path>
            <path d="M12.904105,67.4388141 L12.904105,60.1052802 C12.904105,58.942566 13.8345962,58 15.0004441,58 C16.1582202,58 17.0967832,58.9453969 17.0967832,60.1052802 L17.0967832,67.4388141 L21.810688,61.8210012 C22.5580662,60.9303105 23.8767336,60.8063712 24.7698249,61.5557638 C25.6567329,62.2999679 25.7680244,63.6274806 25.0224658,64.5160028 L20.3085611,70.1338157 L27.5306821,68.8603609 C28.675732,68.6584577 29.7655565,69.4111378 29.9680038,70.5592738 C30.1690495,71.6994607 29.4009951,72.7879313 28.258733,72.9893429 L21.036612,74.2627977 L27.3876387,77.9295647 C28.3945786,78.5109217 28.7456192,79.7880337 28.1626952,80.7976877 C27.5838072,81.8003512 26.295788,82.1404721 25.2912996,81.5605305 L18.9402729,77.8937635 L21.4484892,84.7850312 C21.8461609,85.8776251 21.2941617,87.0815942 20.1986231,87.4803377 C19.1106694,87.8763204 17.9053639,87.3089454 17.5086605,86.2190116 L15.0004441,79.3277439 L12.4922278,86.2190116 C12.0945562,87.3116055 10.8978039,87.8790812 9.8022652,87.4803377 C8.71431153,87.0843549 8.1556956,85.874965 8.55239905,84.7850312 L11.0606154,77.8937635 L4.7095887,81.5605305 C3.70264871,82.1418875 2.42111698,81.8073416 1.83819302,80.7976877 C1.25930497,79.7950241 1.60876121,78.5095063 2.6132496,77.9295647 L8.96427628,74.2627977 L1.74215522,72.9893429 C0.597105313,72.7874397 -0.16956294,71.7074099 0.0328844257,70.5592738 C0.233930138,69.4190869 1.32794409,68.6589493 2.47020614,68.8603609 L9.69232721,70.1338157 L4.97842247,64.5160028 C4.23104422,63.6253121 4.33797204,62.3051564 5.23106336,61.5557638 C6.11797132,60.8115597 7.44464169,60.9324791 8.1902003,61.8210012 L12.904105,67.4388141 Z M13.9437664,70.2907883 C13.8231636,70.6294937 13.6130952,70.941862 13.3160681,71.1910973 C13.0208714,71.4387967 12.6769573,71.5906568 12.3219677,71.6502733 C12.4472962,71.9872586 12.487161,72.3615759 12.4198304,72.7434266 C12.3529147,73.1229242 12.187075,73.4603195 11.9534579,73.7341713 C12.2660751,73.9117574 12.5372198,74.1728765 12.7310905,74.5086704 C12.9237665,74.8423949 13.0135994,75.2074544 13.0106668,75.5674033 C13.3642957,75.5024957 13.7398487,75.5282361 14.1042064,75.6608514 C14.4663188,75.7926495 14.7697905,76.0145579 14.9989147,76.2921797 C15.2280883,76.0151493 15.5323242,75.7934668 15.8966819,75.6608514 C16.2587943,75.5290533 16.633907,75.5039771 16.9878782,75.5693695 C16.9853637,75.209842 17.0759271,74.8444642 17.2697978,74.5086704 C17.4624737,74.1749458 17.7337081,73.9146185 18.0468992,73.7371837 C17.8138732,73.4633859 17.6483884,73.1252773 17.5810579,72.7434266 C17.5141422,72.363929 17.5545846,71.9901607 17.68045,71.6529224 C17.3259479,71.5929674 16.9818472,71.4403326 16.6848201,71.1910973 C16.3896234,70.9433978 16.1803504,70.6310788 16.0599963,70.2918345 C15.7498936,70.4737759 15.3881855,70.5780346 15.0004441,70.5780346 C14.6150922,70.5780346 14.2540249,70.4733024 13.9437664,70.2907883 Z" id="Rectangle-6" fill="#F4D35E"></path>
            <path d="M349.064442,235.214115 L349.064442,224.927527 C349.064442,223.310698 350.381706,222 351.999267,222 C353.620126,222 354.934091,223.323533 354.934091,224.927527 L354.934091,235.214115 L361.546183,227.334131 C362.58546,226.095569 364.437044,225.938237 365.676167,226.977985 C366.917817,228.019853 367.073623,229.878339 366.042596,231.107069 L359.430504,238.987053 L369.560816,237.200806 C371.153081,236.920047 372.672608,237.989698 372.953494,239.582685 C373.234953,241.178919 372.159695,242.702752 370.58007,242.981282 L360.449758,244.76753 L369.358205,249.910824 C370.758419,250.719238 371.234885,252.515371 370.426105,253.91622 C369.615675,255.319925 367.812479,255.796087 366.42338,254.99409 L357.514933,249.850796 L361.033154,259.517027 C361.586141,261.036349 360.796603,262.718533 359.276593,263.271771 C357.753484,263.826138 356.066085,263.031826 355.517487,261.524565 L351.999267,251.858334 L348.481046,261.524565 C347.928058,263.043887 346.24195,263.82501 344.72194,263.271771 C343.198831,262.717405 342.416782,261.024288 342.96538,259.517027 L346.4836,249.850796 L337.575153,254.99409 C336.174939,255.802504 334.381209,255.317069 333.572428,253.91622 C332.761999,252.512515 333.251229,250.712821 334.640328,249.910824 L343.548775,244.76753 L333.418463,242.981282 C331.826198,242.700523 330.764153,241.175671 331.045039,239.582685 C331.326498,237.98645 332.858092,236.922275 334.437717,237.200806 L344.568029,238.987053 L337.955938,231.107069 C336.91666,229.868507 337.083242,228.017733 338.322366,226.977985 C339.564016,225.936117 341.421323,226.105401 342.45235,227.334131 L349.064442,235.214115 Z M350.518895,239.206927 C350.349296,239.682151 350.055069,240.119929 349.64118,240.467222 C349.22758,240.814275 348.745666,241.026938 348.248735,241.11082 C348.424283,241.583879 348.48029,242.108362 348.386469,242.640446 C348.292713,243.172161 348.060243,243.644839 347.733491,244.028517 C348.172044,244.278061 348.552079,244.643838 348.822226,245.111746 C349.092184,245.579328 349.217933,246.090849 349.21425,246.594796 C349.710606,246.504061 350.236846,246.539981 350.744555,246.724772 C351.251911,246.909434 351.67704,247.220452 351.998149,247.608866 C352.320057,247.220307 352.746269,246.909563 353.253978,246.724772 C353.761334,246.540109 354.28692,246.505095 354.782572,246.596232 C354.779406,246.091661 354.906161,245.579653 355.176308,245.111746 C355.446266,244.644164 355.826382,244.279501 356.264655,244.030718 C355.937898,243.646229 355.705885,243.172531 355.612064,242.640446 C355.518309,242.108732 355.575094,241.585051 355.750915,241.112755 C355.25346,241.028254 354.771241,240.814516 354.357353,240.467222 C353.943752,240.12017 353.650636,239.682507 353.481738,239.207691 C353.046349,239.462718 352.53956,239.608949 351.999267,239.608949 C351.459349,239.608949 350.953485,239.462091 350.518895,239.206927 Z" id="Rectangle-6" fill="#F4D35E"></path>
        </g>
    </g>
</svg>
