<?xml version="1.0" encoding="UTF-8"?>
<svg width="58px" height="58px" viewBox="0 0 60 60" version="1.1" xmlns="http://www.w3.org/2000/svg" xmlns:xlink="http://www.w3.org/1999/xlink">
    <!-- Generator: Sketch 42 (36781) - http://www.bohemiancoding.com/sketch -->
    <title>icon</title>
    <desc>Created with Sketch.</desc>
    <defs></defs>
    <g id="icon_navbar" stroke="none" stroke-width="1" fill="none" fill-rule="evenodd">
        <g id="icon">
            <path d="M29.9668269,0.202393048 C13.4431731,0.202393048 0,13.5417713 0,29.9383081 C0,46.3348449 13.4430288,59.6742232 29.9668269,59.6742232 C46.490625,59.6742232 59.9337981,46.3348449 59.9337981,29.938165 C59.9339423,13.5417713 46.490625,0.202393048 29.9668269,0.202393048 L29.9668269,0.202393048 Z" id="Shape" fill="#FFFFFF"></path>
            <path d="M30.0304327,59.6733644 C46.5249519,59.6391591 59.9336538,46.3136633 59.9336538,29.938165 C59.9339423,13.5629529 46.5252404,0.237457129 30.0304327,0.20325176 L30.0304327,59.6733644 Z" id="Shape" fill="#FFFFFF"></path>
            <path d="M29.9668269,3.98530648 C15.5450481,3.98530648 3.81216346,15.6277263 3.81216346,29.9383081 C3.81216346,44.2488899 15.5450481,55.8914528 29.9668269,55.8914528 C44.3886058,55.8914528 56.1214904,44.249033 56.1214904,29.9384512 C56.1214904,15.6278695 44.3886058,3.98530648 29.9668269,3.98530648 L29.9668269,3.98530648 Z" id="Shape" fill="#FFFFFF"></path>
            <path d="M53.8117788,29.938165 C53.8117788,16.9243818 43.0796842,6.33173754 29.8675962,6.27849738 L29.8675962,53.5981188 C43.0796842,53.5445924 53.8117788,42.9520913 53.8117788,29.938165 L53.8117788,29.938165 Z" id="Shape" fill="#2B414D"></path>
            <path d="M6.121875,29.9383081 C6.121875,42.9851518 16.8186058,53.5992638 29.9668269,53.5992638 C30,53.5992638 30.0330288,53.5981188 30.0660577,53.5981188 L30.0660577,32.054708 L30.0660577,6.27849738 C30.0330288,6.27835426 30.0001442,6.27720931 29.9668269,6.27720931 C16.8186058,6.27720931 6.121875,16.8914645 6.121875,29.9383081 Z" id="Shape" fill="#2B414D"></path>
            <path d="M32.5061538,26.5785967 L32.5061538,11.842523 C32.5061538,10.4509799 31.3691827,9.32277521 29.9668269,9.32277521 C28.5644712,9.32277521 27.4275,10.4509799 27.4275,11.842523 L27.4275,26.5785967 C26.3995673,27.3447111 25.7346635,28.5645117 25.7346635,29.9383081 C25.7346635,32.2576897 27.6295673,34.1378401 29.9668269,34.1378401 C32.3040865,34.1378401 34.1989904,32.2575466 34.1989904,29.9383081 C34.1989904,28.5643686 33.5340865,27.3447111 32.5061538,26.5785967 L32.5061538,26.5785967 Z" id="Shape" fill="#F4D35E"></path>
            <path d="" id="Shape" fill="#CC7401"></path>
            <path d="M44.9813942,39.1912182 C44.8399038,39.1912182 44.69625,39.156011 44.5644231,39.0817324 L29.6483654,30.6830978 C29.2419231,30.4541079 29.0991346,29.9414567 29.3299038,29.5381482 C29.5606731,29.1346966 30.0773077,28.9930091 30.48375,29.2221421 L45.3998077,37.6207767 C45.80625,37.8497666 45.9490385,38.3624178 45.7182692,38.7657263 C45.5626442,39.0382243 45.2762019,39.1912182 44.9813942,39.1912182 L44.9813942,39.1912182 Z" id="Shape" fill="#65AFFF"></path>
            <ellipse id="Oval" fill="#00DDC2" cx="30.065625" cy="29.9523337" rx="5.04735577" ry="5.00843885"></ellipse>
        </g>
    </g>
</svg>
