<?xml version="1.0" encoding="UTF-8"?>
<svg width="20px" height="13px" viewBox="0 0 20 13" version="1.1" xmlns="http://www.w3.org/2000/svg" xmlns:xlink="http://www.w3.org/1999/xlink">
    <!-- Generator: Sketch 42 (36781) - http://www.bohemiancoding.com/sketch -->
    <title>marketing</title>
    <desc>Created with Sketch.</desc>
    <defs></defs>
    <g id="Icons_categories" stroke="none" stroke-width="1" fill="none" fill-rule="evenodd">
        <g id="marketing" fill="#FFFFFF">
            <path d="M5,4.0005 L1,4.0005 C0.448,4.0005 0,4.4485 0,5.0005 L0,12.0005 C0,12.5525 0.448,13.0005 1,13.0005 L5,13.0005 C5.552,13.0005 6,12.5525 6,12.0005 L6,5.0005 C6,4.4485 5.552,4.0005 5,4.0005" id="Fill-176"></path>
            <path d="M12,0.0005 L8,0.0005 C7.448,0.0005 7,0.4485 7,1.0005 L7,12.0005 C7,12.5525 7.448,13.0005 8,13.0005 L12,13.0005 C12.552,13.0005 13,12.5525 13,12.0005 L13,1.0005 C13,0.4485 12.552,0.0005 12,0.0005" id="Fill-177"></path>
            <path d="M19,5.0005 L15,5.0005 C14.448,5.0005 14,5.4485 14,6.0005 L14,12.0005 C14,12.5525 14.448,13.0005 15,13.0005 L19,13.0005 C19.552,13.0005 20,12.5525 20,12.0005 L20,6.0005 C20,5.4485 19.552,5.0005 19,5.0005" id="Fill-178"></path>
        </g>
    </g>
</svg>