<?xml version="1.0" encoding="UTF-8"?>
<svg width="40px" height="40px" viewBox="0 0 48 48" version="1.1" xmlns="http://www.w3.org/2000/svg" xmlns:xlink="http://www.w3.org/1999/xlink">
    <!-- Generator: Sketch 42 (36781) - http://www.bohemiancoding.com/sketch -->
    <title>members</title>
    <desc>Created with Sketch.</desc>
    <defs></defs>
    <g id="icon_navbar" stroke="none" stroke-width="1" fill="none" fill-rule="evenodd">
        <g id="members">
            <path d="M0,24 C0,37.2337237 10.7663022,48 23.9999422,48 C37.2335822,48 48,37.2337237 48,23.9998845 C48.0001155,10.7662763 37.2335822,-3.55271368e-15 23.9999422,-3.55271368e-15 C10.7664178,-3.55271368e-15 0,10.7662763 0,24 Z" id="Shape" fill="#456678"></path>
            <g id="members_icons" transform="translate(10.000000, 16.000000)" fill="#2B414D">
                <path d="M13.5849057,8.1509434 C15.8651025,8.1509434 17.7194422,6.32309434 17.7194422,4.0754717 C17.7194422,1.82784906 15.8651025,0 13.5849057,0 C11.3047088,0 9.45036916,1.82784906 9.45036916,4.0754717 C9.45036916,6.32309434 11.3047088,8.1509434 13.5849057,8.1509434" id="Fill-87"></path>
                <path d="M13.5849057,8.73315364 C8.36874487,8.73315364 4.72518458,11.4005915 4.72518458,15.2206392 L4.72518458,16.3018868 L22.4446267,16.3018868 L22.4446267,15.2206392 C22.4446267,11.4005915 18.8010664,8.73315364 13.5849057,8.73315364" id="Fill-88"></path>
                <path d="M20.9680066,9.31536388 C22.7595898,9.31536388 24.216571,7.87919677 24.216571,6.11320755 C24.216571,4.34721833 22.7595898,2.91105121 20.9680066,2.91105121 C19.1764233,2.91105121 17.7194422,4.34721833 17.7194422,6.11320755 C17.7194422,7.87919677 19.1764233,9.31536388 20.9680066,9.31536388" id="Fill-87"></path>
                <path d="M20.6726825,10.4797844 C16.8474979,10.4797844 14.1755537,12.5316596 14.1755537,15.4701579 L14.1755537,16.3018868 L27.1698113,16.3018868 L27.1698113,15.4701579 C27.1698113,12.5316596 24.4978671,10.4797844 20.6726825,10.4797844" id="Fill-88"></path>
                <path d="M6.20180476,9.31536388 C7.99338802,9.31536388 9.45036916,7.87919677 9.45036916,6.11320755 C9.45036916,4.34721833 7.99338802,2.91105121 6.20180476,2.91105121 C4.41022149,2.91105121 2.95324036,4.34721833 2.95324036,6.11320755 C2.95324036,7.87919677 4.41022149,9.31536388 6.20180476,9.31536388" id="Fill-87"></path>
                <path d="M6.49712879,10.4797844 C2.67194422,10.4797844 0,12.5316596 0,15.4701579 L0,16.3018868 L12.9942576,16.3018868 L12.9942576,15.4701579 C12.9942576,12.5316596 10.3223134,10.4797844 6.49712879,10.4797844" id="Fill-88"></path>
            </g>
        </g>
    </g>
</svg>
