<?xml version="1.0" encoding="UTF-8"?>
<svg width="48px" height="48px" viewBox="0 0 48 48" version="1.1" xmlns="http://www.w3.org/2000/svg" xmlns:xlink="http://www.w3.org/1999/xlink">
    <!-- Generator: Sketch 42 (36781) - http://www.bohemiancoding.com/sketch -->
    <title>recherche</title>
    <desc>Created with Sketch.</desc>
    <defs></defs>
    <g id="icon_navbar" stroke="none" stroke-width="1" fill="none" fill-rule="evenodd">
        <g id="recherche">
            <path d="M0,24 C0,37.2337237 10.7663022,48 23.9999422,48 C37.2335822,48 48,37.2337237 48,23.9998845 C48.0001155,10.7662763 37.2335822,0 23.9999422,0 C10.7664178,0 0,10.7662763 0,24 Z" id="Shape" fill="#456678"></path>
            <path d="M16.5019467,27.1901125 C15.1434561,25.7867456 14.3959269,23.9155898 14.3959269,21.9265561 C14.3959269,19.9375224 15.1434561,18.0688482 16.5019467,16.6629997 C17.8592393,15.2559104 19.6645702,14.481639 21.5837077,14.481639 C23.5040431,14.481639 25.3081761,15.2559104 26.6654687,16.6642406 C28.0239593,18.0688482 28.7714885,19.9375224 28.7714885,21.9265561 C28.7714885,23.9155898 28.0239593,25.7867456 26.6654687,27.1913533 C25.3081761,28.5972018 23.5040431,29.3714732 21.5837077,29.3714732 C19.6645702,29.3714732 17.8592393,28.5972018 16.5019467,27.1901125 L16.5019467,27.1901125 Z M35.5471698,34.6983114 L29.1224918,28.0437963 C30.4438455,26.3054082 31.1674154,24.1749211 31.1674154,21.9265561 C31.1674154,19.2749248 30.1707098,16.7821184 28.359389,14.9084809 C26.5504642,13.0336027 24.1437556,12 21.5837077,12 C19.0236598,12 16.6181491,13.0336027 14.8080264,14.9084809 C12.9979036,16.7821184 12,19.2749248 12,21.9265561 C12,24.5794282 12.9979036,27.0709938 14.8080264,28.9458721 C16.6181491,30.8207504 19.0236598,31.8531122 21.5837077,31.8531122 C23.7244684,31.8531122 25.7526205,31.1222696 27.4201857,29.7896294 L33.8532495,36.4528302 L35.5471698,34.6983114 Z" id="Fill-228" fill="#2B414D"></path>
        </g>
    </g>
</svg>