<?xml version="1.0" encoding="UTF-8"?>
<svg width="20px" height="18px" viewBox="0 0 20 18" version="1.1" xmlns="http://www.w3.org/2000/svg" xmlns:xlink="http://www.w3.org/1999/xlink">
    <!-- Generator: Sketch 42 (36781) - http://www.bohemiancoding.com/sketch -->
    <title>sales</title>
    <desc>Created with Sketch.</desc>
    <defs></defs>
    <g id="Icons_categories" stroke="none" stroke-width="1" fill="none" fill-rule="evenodd">
        <g id="sales" fill="#FFFFFF">
            <path d="M12.3804762,8.52678947 L9.04714286,8.52678947 C8.78428571,8.52678947 8.57095238,8.73994737 8.57095238,9.00047368 C8.57095238,9.26194737 8.78428571,9.47415789 9.04714286,9.47415789 L9.99952381,9.47415789 C11.3119048,9.47415789 12.3804762,10.5371053 12.3804762,11.8425789 C12.3804762,12.987 11.5614286,13.9438421 10.4757143,14.1636316 L10.4757143,15.1583684 L8.57095238,15.1583684 L8.57095238,14.211 L6.66619048,14.211 L6.66619048,12.3162632 L9.99952381,12.3162632 C10.262381,12.3162632 10.4757143,12.1040526 10.4757143,11.8425789 C10.4757143,11.5820526 10.262381,11.3688947 9.99952381,11.3688947 L9.04714286,11.3688947 C7.7347619,11.3688947 6.66619048,10.3059474 6.66619048,9.00047368 C6.66619048,7.857 7.4852381,6.90015789 8.57095238,6.68036842 L8.57095238,5.68468421 L10.4757143,5.68468421 L10.4757143,6.63205263 L12.3804762,6.63205263 L12.3804762,8.52678947 Z M7.61952381,1.89521053 L11.4290476,1.89521053 L11.4290476,2.84257895 L7.61952381,2.84257895 L7.61952381,1.89521053 Z M17.1433333,2.84257895 L17.1433333,1.89521053 L15.2385714,1.89521053 L15.2385714,2.84257895 L13.3338095,2.84257895 L13.3338095,0.947842105 C13.3338095,0.424894737 12.9071429,0.000473684211 12.3814286,0.000473684211 L6.66714286,0.000473684211 C6.14047619,0.000473684211 5.7147619,0.424894737 5.7147619,0.947842105 L5.7147619,2.84257895 L3.81,2.84257895 L3.81,1.89521053 L1.9052381,1.89521053 L1.9052381,2.84257895 C0.854761905,2.84257895 0.000476190476,3.69236842 0.000476190476,4.73731579 L0.000476190476,16.1057368 C0.000476190476,17.1516316 0.854761905,18.0004737 1.9052381,18.0004737 L17.1433333,18.0004737 C18.1938095,18.0004737 19.0480952,17.1516316 19.0480952,16.1057368 L19.0480952,4.73731579 C19.0480952,3.69236842 18.1938095,2.84257895 17.1433333,2.84257895 L17.1433333,2.84257895 Z" id="Fill-404"></path>
        </g>
    </g>
</svg>