<?xml version="1.0" encoding="UTF-8"?>
<svg width="362px" height="285px" viewBox="0 0 362 285" version="1.1" xmlns="http://www.w3.org/2000/svg" xmlns:xlink="http://www.w3.org/1999/xlink">
    <!-- Generator: Sketch 42 (36781) - http://www.bohemiancoding.com/sketch -->
    <title>Group</title>
    <desc>Created with Sketch.</desc>
    <defs></defs>
    <g id="Page-9" stroke="none" stroke-width="1" fill="none" fill-rule="evenodd">
        <g id="Group" transform="translate(1.000000, 0.000000)">
            <path d="M31.5,16.344148 C30.4959367,16.344148 29.6819826,12.6853858 29.6819826,8.172074 C29.6819826,3.65876215 30.4959367,0 31.5,0 C32.5040633,0 33.3180174,3.65876215 33.3180174,8.172074 C33.3180174,12.6853858 32.5040633,16.344148 31.5,16.344148 Z M34.3880966,17.7592934 C33.7562191,16.9789897 36.0873735,14.0438949 39.5948755,11.2035758 C43.1023776,8.36325658 46.4580077,6.6932841 47.0898852,7.47358782 C47.7217627,8.25389153 45.3906084,11.1889863 41.8831063,14.0293055 C38.3756043,16.8696247 35.0199741,18.5395971 34.3880966,17.7592934 Z M35.058209,20.7645251 C35.2840741,19.7861959 39.0321622,19.8161458 43.4297982,20.8314201 C47.8274341,21.8466943 51.2093226,23.4628292 50.9834575,24.4411584 C50.7575924,25.4194876 47.0095043,25.3895377 42.6118683,24.3742635 C38.2142324,23.3589892 34.8323439,21.7428543 35.058209,20.7645251 Z M33.0448517,23.2663022 C33.9472978,22.8261499 36.2827707,25.7578095 38.2612763,29.8143473 C40.239782,33.8708852 41.1121007,37.5161728 40.2096546,37.9563252 C39.3072085,38.3964775 36.9717356,35.4648179 34.99323,31.4082801 C33.0147243,27.3517422 32.1424056,23.7064546 33.0448517,23.2663022 Z M29.9551483,23.2663022 C30.8575944,23.7064546 29.9852757,27.3517422 28.00677,31.4082801 C26.0282644,35.4648179 23.6927915,38.3964775 22.7903454,37.9563252 C21.8878993,37.5161728 22.760218,33.8708852 24.7387237,29.8143473 C26.7172293,25.7578095 29.0527022,22.8261499 29.9551483,23.2663022 Z M27.941791,20.7645251 C28.1676561,21.7428543 24.7857676,23.3589892 20.3881317,24.3742635 C15.9904957,25.3895377 12.2424076,25.4194876 12.0165425,24.4411584 C11.7906774,23.4628292 15.1725659,21.8466943 19.5702018,20.8314201 C23.9678378,19.8161458 27.7159259,19.7861959 27.941791,20.7645251 Z M28.6119034,17.7592934 C27.9800259,18.5395971 24.6243957,16.8696247 21.1168937,14.0293055 C17.6093916,11.1889863 15.2782373,8.25389153 15.9101148,7.47358782 C16.5419923,6.6932841 19.8976224,8.36325658 23.4051245,11.2035758 C26.9126265,14.0438949 29.2437809,16.9789897 28.6119034,17.7592934 Z" id="Oval-3" fill="#FF8500"></path>
            <path d="M126.5,33.172074 C126.010841,33.172074 125.614299,31.3426929 125.614299,29.086037 C125.614299,26.8293811 126.010841,25 126.5,25 C126.989159,25 127.385701,26.8293811 127.385701,29.086037 C127.385701,31.3426929 126.989159,33.172074 126.5,33.172074 Z M127.8256,33.8796467 C127.517762,33.4994987 128.689906,32.0400611 130.443657,30.6199015 C132.197408,29.1997419 133.868656,28.3566459 134.176494,28.7367939 C134.484332,29.1169419 133.312187,30.5763795 131.558436,31.9965391 C129.804685,33.4166987 128.133437,34.2597947 127.8256,33.8796467 Z M128.131401,35.3822626 C128.241438,34.9056406 130.113135,34.9307834 132.311953,35.4384206 C134.510771,35.9460577 136.204063,36.7439573 136.094026,37.2205792 C135.983989,37.6972011 134.112292,37.6720583 131.913474,37.1644212 C129.714656,36.6567841 128.021365,35.8588845 128.131401,35.3822626 Z M127.206692,36.6331511 C127.646345,36.4187179 128.804702,37.8891223 129.793955,39.9173912 C130.783208,41.9456601 131.228747,43.7637294 130.789093,43.9781626 C130.34944,44.1925958 129.191083,42.7221914 128.20183,40.6939225 C127.212577,38.6656536 126.767039,36.8475843 127.206692,36.6331511 Z M125.793308,36.6331511 C126.232961,36.8475843 125.787423,38.6656536 124.79817,40.6939225 C123.808917,42.7221914 122.65056,44.1925958 122.210907,43.9781626 C121.771253,43.7637294 122.216792,41.9456601 123.206045,39.9173912 C124.195298,37.8891223 125.353655,36.4187179 125.793308,36.6331511 Z M124.868599,35.3822626 C124.978635,35.8588845 123.285344,36.6567841 121.086526,37.1644212 C118.887708,37.6720583 117.016011,37.6972011 116.905974,37.2205792 C116.795937,36.7439573 118.489229,35.9460577 120.688047,35.4384206 C122.886865,34.9307834 124.758562,34.9056406 124.868599,35.3822626 Z M125.1744,33.8796467 C124.866563,34.2597947 123.195315,33.4166987 121.441564,31.9965391 C119.687813,30.5763795 118.515668,29.1169419 118.823506,28.7367939 C119.131344,28.3566459 120.802592,29.1997419 122.556343,30.6199015 C124.310094,32.0400611 125.482238,33.4994987 125.1744,33.8796467 Z" id="Oval-3" fill="#65AFFF"></path>
            <path d="M264,46.5 C264,33.5213084 253.478692,23 240.5,23 C227.521308,23 217,33.5213084 217,46.5 C217,59.4786916 227.521308,70 240.5,70 C253.478692,70 264,59.4786916 264,46.5 Z M223.714286,46.5 C223.714286,37.229506 231.229506,29.7142857 240.5,29.7142857 C249.770494,29.7142857 257.285714,37.229506 257.285714,46.5 C257.285714,55.770494 249.770494,63.2857143 240.5,63.2857143 C231.229506,63.2857143 223.714286,55.770494 223.714286,46.5 Z" id="Oval-4" fill="#00DDC2" fill-rule="nonzero"></path>
            <path d="M361,117 C361,109.820298 355.179702,104 348,104 C340.820298,104 335,109.820298 335,117 C335,124.179702 340.820298,130 348,130 C355.179702,130 361,124.179702 361,117 Z M338.714286,117 C338.714286,111.871642 342.871642,107.714286 348,107.714286 C353.128358,107.714286 357.285714,111.871642 357.285714,117 C357.285714,122.128358 353.128358,126.285714 348,126.285714 C342.871642,126.285714 338.714286,122.128358 338.714286,117 Z" id="Oval-4-Copy" fill="#65AFFF" fill-rule="nonzero"></path>
            <path d="M62.2010219,260.201022 L53.8000179,260.201022 C52.2574973,260.201022 51,261.454167 51,263 C51,264.542687 52.2536107,265.798978 53.8000179,265.798978 L62.2010219,265.798978 L62.2010219,274.199982 C62.2010219,275.742503 63.4541671,277 65,277 C66.5426875,277 67.7989781,275.746389 67.7989781,274.199982 L67.7989781,265.798978 L76.1999821,265.798978 C77.7425027,265.798978 79,264.545833 79,263 C79,261.457313 77.7463893,260.201022 76.1999821,260.201022 L67.7989781,260.201022 L67.7989781,251.800018 C67.7989781,250.257497 66.5458329,249 65,249 C63.4573125,249 62.2010219,250.253611 62.2010219,251.800018 L62.2010219,260.201022 Z" id="Combined-Shape" fill="#FF8500"></path>
            <path d="M13.7637726,140.186502 L13.7637726,132.244804 C13.7637726,131.005033 14.7564611,130 16.0002384,130 C17.2354044,130 18.2367043,130.999613 18.2367043,132.244804 L18.2367043,140.186502 L23.3228459,134.125075 C24.1197554,133.175355 25.5262217,133.043543 26.4790104,133.843027 C27.4252024,134.636977 27.5497036,136.046348 26.7493103,137.00022 L21.5906881,143.148026 L29.4555898,141.761232 C30.676526,141.545948 31.8386689,142.349033 32.0546485,143.573915 C32.2691328,144.790316 31.4585798,145.949985 30.2323062,146.16621 L22.3288385,147.559804 L29.2924252,151.580233 C30.3660985,152.200119 30.7401384,153.562329 30.1182497,154.639471 C29.5006667,155.709156 28.1343263,156.076501 27.0559594,155.453905 L20.1782471,151.483056 L22.9096987,158.987658 C23.3337254,160.152662 22.7446449,161.436603 21.5758765,161.862 C20.4152002,162.284452 19.1323982,161.687587 18.7065179,160.517491 L16.0002384,153.082049 L13.293959,160.517491 C12.8699323,161.682495 11.5933687,162.287397 10.4246003,161.862 C9.26392398,161.439549 8.66489779,160.157755 9.09077814,158.987658 L11.8222298,151.483056 L4.94451748,155.453905 C3.87084421,156.073791 2.5041158,155.716614 1.88222714,154.639471 C1.26464416,153.569786 1.62968477,152.202828 2.70805167,151.580233 L9.67163841,147.559804 L1.76817068,146.16621 C0.547234482,145.950926 -0.270151317,144.798796 -0.0541716528,143.573915 C0.160312666,142.357514 1.31861351,141.545007 2.54488711,141.761232 L10.4097887,143.148026 L5.25116655,137.00022 C4.45425704,136.0505 4.56867776,134.642512 5.52146646,133.843027 C6.46765848,133.049078 7.87723773,133.171203 8.67763097,134.125075 L13.7637726,140.186502 Z M14.9217608,143.317532 C14.7918918,143.670661 14.5703428,143.996075 14.259644,144.256782 C13.9502505,144.516394 13.5913109,144.678058 13.2203248,144.744723 C13.3609348,145.110301 13.4069002,145.518209 13.3334931,145.934521 C13.2603905,146.349106 13.0776499,146.716773 12.8199478,147.012783 C13.155785,147.20235 13.4471298,147.482088 13.6551419,147.842376 C13.8622589,148.201113 13.9588591,148.593284 13.9551004,148.979601 C14.3183293,148.921152 14.7016804,148.952094 15.0740875,149.087639 C15.4450118,149.222645 15.7585755,149.445414 15.9996587,149.724254 C16.2403496,149.445951 16.5539353,149.223202 16.9263894,149.087639 C17.297265,148.952652 17.6806098,148.921738 18.0444825,148.980345 C18.0407561,148.594759 18.1373454,148.202624 18.3453349,147.842376 C18.5524732,147.483602 18.8438423,147.203837 19.1803256,147.013933 C18.9231271,146.718481 18.7403969,146.350868 18.6669838,145.934521 C18.5938871,145.519969 18.6398444,145.112006 18.7807374,144.745731 C18.4104398,144.67915 18.0515172,144.517477 17.7408329,144.256782 C17.4314226,143.997156 17.209878,143.671721 17.0798079,143.317925 C16.7605325,143.494023 16.392898,143.594191 16.0002384,143.594191 C15.6091864,143.594191 15.2415759,143.493995 14.9217608,143.317532 Z" id="Rectangle-6" fill="#F4D35E"></path>
            <path d="M289.355305,254.324769 L289.355305,243.135349 C289.355305,241.403744 290.766918,240 292.500335,240 C294.237287,240 295.645365,241.405706 295.645365,243.135349 L295.645365,254.324769 L302.811512,245.784488 C303.924567,244.458001 305.908233,244.290038 307.236108,245.404257 C308.566691,246.520749 308.741771,248.502677 307.629978,249.827661 L300.361905,258.489412 L311.443004,256.535515 C313.148303,256.234825 314.775845,257.381234 315.076849,259.088317 C315.378468,260.798881 314.238628,262.429666 312.535262,262.730015 L301.399929,264.693475 L311.211012,270.357906 C312.710626,271.223709 313.220498,273.148073 312.353789,274.649256 C311.485313,276.153501 309.563896,276.670079 308.065982,275.805258 L298.37566,270.210548 L302.224085,280.78401 C302.816329,282.411187 301.969956,284.213074 300.341076,284.805938 C298.708875,285.400011 296.904935,284.56067 296.313362,282.935337 L292.500335,272.459132 L288.687308,282.935337 C288.095064,284.562514 286.288474,285.398802 284.659594,284.805938 C283.027393,284.211865 282.185013,282.409343 282.776585,280.78401 L286.625011,270.210548 L276.934689,275.805258 C275.435075,276.671061 273.513591,276.15044 272.646882,274.649256 C271.778406,273.145012 272.291744,271.222727 273.789659,270.357906 L283.600742,264.693475 L272.465409,262.730015 C270.76011,262.429325 269.622816,260.795401 269.923821,259.088317 C270.22544,257.377754 271.8543,256.235166 273.557666,256.535515 L284.638765,258.489412 L277.370693,249.827661 C276.257638,248.501174 276.436687,246.518477 277.764562,245.404257 C279.095145,244.287766 281.077366,244.459504 282.189159,245.784488 L289.355305,254.324769 Z M290.982623,258.727851 C290.799221,259.225553 290.487543,259.683659 290.052624,260.0486 C289.617201,260.413963 289.111995,260.641373 288.590346,260.73556 C288.788138,261.251083 288.852967,261.82524 288.750225,262.40792 C288.647344,262.991388 288.390042,263.508773 288.028036,263.925352 C288.501244,264.192947 288.911403,264.586571 289.202543,265.090841 C289.49404,265.595728 289.629868,266.14771 289.625048,266.690994 C290.137125,266.608895 290.676631,266.652254 291.197936,266.841993 C291.719981,267.032002 292.161228,267.345633 292.500603,267.73755 C292.840127,267.34541 293.281344,267.031764 293.802735,266.841993 C294.324695,266.652015 294.864217,266.608625 295.376038,266.69065 C295.371193,266.147071 295.507003,265.595083 295.798127,265.090841 C296.089641,264.585925 296.499787,264.192288 296.972729,263.924819 C296.610512,263.508021 296.353194,262.990636 296.250446,262.40792 C296.147571,261.824489 296.212385,261.250339 296.410053,260.735093 C295.888125,260.640883 295.382918,260.4135 294.948046,260.0486 C294.512577,259.683198 294.200874,259.225099 294.017543,258.727669 C293.567334,258.975675 293.050015,259.116831 292.500335,259.116831 C291.949969,259.116831 291.43262,258.9757 290.982623,258.727851 Z" id="Rectangle-6" fill="#F4D35E"></path>
        </g>
    </g>
</svg>