<?xml version="1.0" encoding="UTF-8"?>
<svg width="531px" height="285px" viewBox="0 0 531 285" version="1.1" xmlns="http://www.w3.org/2000/svg" xmlns:xlink="http://www.w3.org/1999/xlink">
    <!-- Generator: Sketch 42 (36781) - http://www.bohemiancoding.com/sketch -->
    <title>Group</title>
    <desc>Created with Sketch.</desc>
    <defs></defs>
    <g id="Page-9" stroke="none" stroke-width="1" fill="none" fill-rule="evenodd">
        <g id="Group" transform="translate(1.000000, 0.000000)">
            <path d="M200.5,16.344148 C199.495937,16.344148 198.681983,12.6853858 198.681983,8.172074 C198.681983,3.65876215 199.495937,0 200.5,0 C201.504063,0 202.318017,3.65876215 202.318017,8.172074 C202.318017,12.6853858 201.504063,16.344148 200.5,16.344148 Z M203.388097,17.7592934 C202.756219,16.9789897 205.087373,14.0438949 208.594876,11.2035758 C212.102378,8.36325658 215.458008,6.6932841 216.089885,7.47358782 C216.721763,8.25389153 214.390608,11.1889863 210.883106,14.0293055 C207.375604,16.8696247 204.019974,18.5395971 203.388097,17.7592934 Z M204.058209,20.7645251 C204.284074,19.7861959 208.032162,19.8161458 212.429798,20.8314201 C216.827434,21.8466943 220.209323,23.4628292 219.983458,24.4411584 C219.757592,25.4194876 216.009504,25.3895377 211.611868,24.3742635 C207.214232,23.3589892 203.832344,21.7428543 204.058209,20.7645251 Z M202.044852,23.2663022 C202.947298,22.8261499 205.282771,25.7578095 207.261276,29.8143473 C209.239782,33.8708852 210.112101,37.5161728 209.209655,37.9563252 C208.307209,38.3964775 205.971736,35.4648179 203.99323,31.4082801 C202.014724,27.3517422 201.142406,23.7064546 202.044852,23.2663022 Z M198.955148,23.2663022 C199.857594,23.7064546 198.985276,27.3517422 197.00677,31.4082801 C195.028264,35.4648179 192.692791,38.3964775 191.790345,37.9563252 C190.887899,37.5161728 191.760218,33.8708852 193.738724,29.8143473 C195.717229,25.7578095 198.052702,22.8261499 198.955148,23.2663022 Z M196.941791,20.7645251 C197.167656,21.7428543 193.785768,23.3589892 189.388132,24.3742635 C184.990496,25.3895377 181.242408,25.4194876 181.016542,24.4411584 C180.790677,23.4628292 184.172566,21.8466943 188.570202,20.8314201 C192.967838,19.8161458 196.715926,19.7861959 196.941791,20.7645251 Z M197.611903,17.7592934 C196.980026,18.5395971 193.624396,16.8696247 190.116894,14.0293055 C186.609392,11.1889863 184.278237,8.25389153 184.910115,7.47358782 C185.541992,6.6932841 188.897622,8.36325658 192.405124,11.2035758 C195.912627,14.0438949 198.243781,16.9789897 197.611903,17.7592934 Z" id="Oval-3" fill="#FF8500"></path>
            <path d="M295.5,33.172074 C295.010841,33.172074 294.614299,31.3426929 294.614299,29.086037 C294.614299,26.8293811 295.010841,25 295.5,25 C295.989159,25 296.385701,26.8293811 296.385701,29.086037 C296.385701,31.3426929 295.989159,33.172074 295.5,33.172074 Z M296.8256,33.8796467 C296.517762,33.4994987 297.689906,32.0400611 299.443657,30.6199015 C301.197408,29.1997419 302.868656,28.3566459 303.176494,28.7367939 C303.484332,29.1169419 302.312187,30.5763795 300.558436,31.9965391 C298.804685,33.4166987 297.133437,34.2597947 296.8256,33.8796467 Z M297.131401,35.3822626 C297.241438,34.9056406 299.113135,34.9307834 301.311953,35.4384206 C303.510771,35.9460577 305.204063,36.7439573 305.094026,37.2205792 C304.983989,37.6972011 303.112292,37.6720583 300.913474,37.1644212 C298.714656,36.6567841 297.021365,35.8588845 297.131401,35.3822626 Z M296.206692,36.6331511 C296.646345,36.4187179 297.804702,37.8891223 298.793955,39.9173912 C299.783208,41.9456601 300.228747,43.7637294 299.789093,43.9781626 C299.34944,44.1925958 298.191083,42.7221914 297.20183,40.6939225 C296.212577,38.6656536 295.767039,36.8475843 296.206692,36.6331511 Z M294.793308,36.6331511 C295.232961,36.8475843 294.787423,38.6656536 293.79817,40.6939225 C292.808917,42.7221914 291.65056,44.1925958 291.210907,43.9781626 C290.771253,43.7637294 291.216792,41.9456601 292.206045,39.9173912 C293.195298,37.8891223 294.353655,36.4187179 294.793308,36.6331511 Z M293.868599,35.3822626 C293.978635,35.8588845 292.285344,36.6567841 290.086526,37.1644212 C287.887708,37.6720583 286.016011,37.6972011 285.905974,37.2205792 C285.795937,36.7439573 287.489229,35.9460577 289.688047,35.4384206 C291.886865,34.9307834 293.758562,34.9056406 293.868599,35.3822626 Z M294.1744,33.8796467 C293.866563,34.2597947 292.195315,33.4166987 290.441564,31.9965391 C288.687813,30.5763795 287.515668,29.1169419 287.823506,28.7367939 C288.131344,28.3566459 289.802592,29.1997419 291.556343,30.6199015 C293.310094,32.0400611 294.482238,33.4994987 294.1744,33.8796467 Z" id="Oval-3" fill="#65AFFF"></path>
            <path d="M433,46.5 C433,33.5213084 422.478692,23 409.5,23 C396.521308,23 386,33.5213084 386,46.5 C386,59.4786916 396.521308,70 409.5,70 C422.478692,70 433,59.4786916 433,46.5 Z M392.714286,46.5 C392.714286,37.229506 400.229506,29.7142857 409.5,29.7142857 C418.770494,29.7142857 426.285714,37.229506 426.285714,46.5 C426.285714,55.770494 418.770494,63.2857143 409.5,63.2857143 C400.229506,63.2857143 392.714286,55.770494 392.714286,46.5 Z" id="Oval-4" fill="#00DDC2" fill-rule="nonzero"></path>
            <path d="M530,117 C530,109.820298 524.179702,104 517,104 C509.820298,104 504,109.820298 504,117 C504,124.179702 509.820298,130 517,130 C524.179702,130 530,124.179702 530,117 Z M507.714286,117 C507.714286,111.871642 511.871642,107.714286 517,107.714286 C522.128358,107.714286 526.285714,111.871642 526.285714,117 C526.285714,122.128358 522.128358,126.285714 517,126.285714 C511.871642,126.285714 507.714286,122.128358 507.714286,117 Z" id="Oval-4-Copy" fill="#65AFFF" fill-rule="nonzero"></path>
            <path d="M473.201022,186.201022 L464.800018,186.201022 C463.257497,186.201022 462,187.454167 462,189 C462,190.542687 463.253611,191.798978 464.800018,191.798978 L473.201022,191.798978 L473.201022,200.199982 C473.201022,201.742503 474.454167,203 476,203 C477.542687,203 478.798978,201.746389 478.798978,200.199982 L478.798978,191.798978 L487.199982,191.798978 C488.742503,191.798978 490,190.545833 490,189 C490,187.457313 488.746389,186.201022 487.199982,186.201022 L478.798978,186.201022 L478.798978,177.800018 C478.798978,176.257497 477.545833,175 476,175 C474.457313,175 473.201022,176.253611 473.201022,177.800018 L473.201022,186.201022 Z" id="Combined-Shape" fill="#FF8500"></path>
            <path d="M13.7637726,46.1865023 L13.7637726,38.2448042 C13.7637726,37.0050331 14.7564611,36 16.0002384,36 C17.2354044,36 18.2367043,36.9996133 18.2367043,38.2448042 L18.2367043,46.1865023 L23.3228459,40.1250747 C24.1197554,39.175355 25.5262217,39.0435428 26.4790104,39.8430275 C27.4252024,40.6369769 27.5497036,42.0463482 26.7493103,43.0002198 L21.5906881,49.1480263 L29.4555898,47.7612319 C30.676526,47.5459479 31.8386689,48.3490331 32.0546485,49.5739146 C32.2691328,50.7903157 31.4585798,51.9499846 30.2323062,52.1662097 L22.3288385,53.5598043 L29.2924252,57.580233 C30.3660985,58.2001185 30.7401384,59.5623285 30.1182497,60.6394713 C29.5006667,61.7091564 28.1343263,62.0765008 27.0559594,61.4539054 L20.1782471,57.4830563 L22.9096987,64.9876581 C23.3337254,66.1526619 22.7446449,67.4366035 21.5758765,67.8620004 C20.4152002,68.284452 19.1323982,67.6875875 18.7065179,66.5174908 L16.0002384,59.0820492 L13.293959,66.5174908 C12.8699323,67.6824946 11.5933687,68.2873973 10.4246003,67.8620004 C9.26392398,67.4395487 8.66489779,66.1577548 9.09077814,64.9876581 L11.8222298,57.4830563 L4.94451748,61.4539054 C3.87084421,62.0737909 2.5041158,61.716614 1.88222714,60.6394713 C1.26464416,59.5697861 1.62968477,58.2028284 2.70805167,57.580233 L9.67163841,53.5598043 L1.76817068,52.1662097 C0.547234482,51.9509257 -0.270151317,50.7987962 -0.0541716528,49.5739146 C0.160312666,48.3575136 1.31861351,47.5450068 2.54488711,47.7612319 L10.4097887,49.1480263 L5.25116655,43.0002198 C4.45425704,42.0505 4.56867776,40.6425121 5.52146646,39.8430275 C6.46765848,39.0490781 7.87723773,39.1712032 8.67763097,40.1250747 L13.7637726,46.1865023 Z M14.9217608,49.3175317 C14.7918918,49.6706609 14.5703428,49.9960747 14.259644,50.256782 C13.9502505,50.516394 13.5913109,50.6780582 13.2203248,50.7447229 C13.3609348,51.1103006 13.4069002,51.5182088 13.3334931,51.9345211 C13.2603905,52.3491063 13.0776499,52.7167732 12.8199478,53.0127831 C13.155785,53.2023502 13.4471298,53.4820881 13.6551419,53.8423757 C13.8622589,54.2011128 13.9588591,54.5932845 13.9551004,54.9796012 C14.3183293,54.9211518 14.7016804,54.9520943 15.0740875,55.0876394 C15.4450118,55.2226448 15.7585755,55.4454138 15.9996587,55.7242538 C16.2403496,55.4459508 16.5539353,55.2232016 16.9263894,55.0876394 C17.297265,54.9526517 17.6806098,54.9217382 18.0444825,54.9803455 C18.0407561,54.5947589 18.1373454,54.2026242 18.3453349,53.8423757 C18.5524732,53.4836018 18.8438423,53.203837 19.1803256,53.0139328 C18.9231271,52.7184812 18.7403969,52.3508677 18.6669838,51.9345211 C18.5938871,51.5199691 18.6398444,51.1120063 18.7807374,50.7457313 C18.4104398,50.6791497 18.0515172,50.5174771 17.7408329,50.256782 C17.4314226,49.9971559 17.209878,49.6717211 17.0798079,49.3179251 C16.7605325,49.4940234 16.392898,49.594191 16.0002384,49.594191 C15.6091864,49.594191 15.2415759,49.493995 14.9217608,49.3175317 Z" id="Rectangle-6" fill="#F4D35E"></path>
            <path d="M458.355305,254.324769 L458.355305,243.135349 C458.355305,241.403744 459.766918,240 461.500335,240 C463.237287,240 464.645365,241.405706 464.645365,243.135349 L464.645365,254.324769 L471.811512,245.784488 C472.924567,244.458001 474.908233,244.290038 476.236108,245.404257 C477.566691,246.520749 477.741771,248.502677 476.629978,249.827661 L469.361905,258.489412 L480.443004,256.535515 C482.148303,256.234825 483.775845,257.381234 484.076849,259.088317 C484.378468,260.798881 483.238628,262.429666 481.535262,262.730015 L470.399929,264.693475 L480.211012,270.357906 C481.710626,271.223709 482.220498,273.148073 481.353789,274.649256 C480.485313,276.153501 478.563896,276.670079 477.065982,275.805258 L467.37566,270.210548 L471.224085,280.78401 C471.816329,282.411187 470.969956,284.213074 469.341076,284.805938 C467.708875,285.400011 465.904935,284.56067 465.313362,282.935337 L461.500335,272.459132 L457.687308,282.935337 C457.095064,284.562514 455.288474,285.398802 453.659594,284.805938 C452.027393,284.211865 451.185013,282.409343 451.776585,280.78401 L455.625011,270.210548 L445.934689,275.805258 C444.435075,276.671061 442.513591,276.15044 441.646882,274.649256 C440.778406,273.145012 441.291744,271.222727 442.789659,270.357906 L452.600742,264.693475 L441.465409,262.730015 C439.76011,262.429325 438.622816,260.795401 438.923821,259.088317 C439.22544,257.377754 440.8543,256.235166 442.557666,256.535515 L453.638765,258.489412 L446.370693,249.827661 C445.257638,248.501174 445.436687,246.518477 446.764562,245.404257 C448.095145,244.287766 450.077366,244.459504 451.189159,245.784488 L458.355305,254.324769 Z M459.982623,258.727851 C459.799221,259.225553 459.487543,259.683659 459.052624,260.0486 C458.617201,260.413963 458.111995,260.641373 457.590346,260.73556 C457.788138,261.251083 457.852967,261.82524 457.750225,262.40792 C457.647344,262.991388 457.390042,263.508773 457.028036,263.925352 C457.501244,264.192947 457.911403,264.586571 458.202543,265.090841 C458.49404,265.595728 458.629868,266.14771 458.625048,266.690994 C459.137125,266.608895 459.676631,266.652254 460.197936,266.841993 C460.719981,267.032002 461.161228,267.345633 461.500603,267.73755 C461.840127,267.34541 462.281344,267.031764 462.802735,266.841993 C463.324695,266.652015 463.864217,266.608625 464.376038,266.69065 C464.371193,266.147071 464.507003,265.595083 464.798127,265.090841 C465.089641,264.585925 465.499787,264.192288 465.972729,263.924819 C465.610512,263.508021 465.353194,262.990636 465.250446,262.40792 C465.147571,261.824489 465.212385,261.250339 465.410053,260.735093 C464.888125,260.640883 464.382918,260.4135 463.948046,260.0486 C463.512577,259.683198 463.200874,259.225099 463.017543,258.727669 C462.567334,258.975675 462.050015,259.116831 461.500335,259.116831 C460.949969,259.116831 460.43262,258.9757 459.982623,258.727851 Z" id="Rectangle-6" fill="#F4D35E"></path>
        </g>
    </g>
</svg>
